<svg xmlns:xlink="http://www.w3.org/1999/xlink" viewBox="0 0 280 79.9987" style="shape-rendering:geometricPrecision; text-rendering:geometricPrecision; image-rendering:optimizeQuality; fill-rule:evenodd; clip-rule:evenodd" height="80px" width="280px" xml:space="preserve" xmlns="http://www.w3.org/2000/svg">
 <defs>
  <style type="text/css">
   
    .fil1 {fill:#1C3740}
    .fil0 {fill:#1D3A41;fill-rule:nonzero}
   
  </style>
 </defs>
 <g id="图层_x0020_1">
  <metadata id="CorelCorpID_0Corel-Layer"></metadata>
  <path d="M90.6404 62.308l-1.56378 -7.31223 -7.0512 0 -1.41024 6.31183c-0.206693,1.0004 -0.206693,1.80237 0,2.41182 0.21378,0.610632 0.681498,0.915357 1.41024,0.915357l0.474804 0 0 0.999215 -5.80159 0 0 -0.999215 0.474804 0c0.414568,0 0.781892,-0.134646 1.09607,-0.412206 0.314174,-0.276379 0.522049,-0.751183 0.628348,-1.41733l6.10868 -25.4339 2.34686 -0.829136 5.95395 26.2631c0.207875,0.666144 0.467718,1.14095 0.783073,1.41733 0.314174,0.27756 0.680317,0.412206 1.09488,0.412206l0.468899 0 0 0.999215 -6.73112 0 0 -0.999215 0.621262 0c0.629529,0 1.02284,-0.191339 1.17638,-0.582285 0.16063,-0.389765 0.133465,-0.970869 -0.0803152,-1.74449zm-1.71733 -8.31144l-3.13347 -13.7953 -0.16063 0 -3.28938 13.7953 6.58348 0z" class="fil0"></path>
  <path d="M116.191 38.8678c1.30394,1.11378 1.95945,2.77324 1.95945,4.98663 0,2.2193 -0.575198,3.93544 -1.7256,5.15553 -1.14803,1.22008 -2.45198,1.93583 -3.91537,2.16379l4.69844 12.2977c0.212599,0.446458 0.446458,0.751183 0.708663,0.915357 0.259843,0.162993 0.548033,0.248032 0.861026,0.248032l0.936617 0 0 0.999215 -4.38426 0 -5.16734 -14.2973 -3.60237 0 0 11.9717c0,0.439371 0.126378,0.772443 0.388584,0.99331 0.259843,0.226772 0.601183,0.333072 1.02166,0.333072l0.935436 0 0 0.999215 -7.20474 0 0 -0.999215 0.942522 0c0.522049,0 0.889373,-0.1063 1.09607,-0.333072 0.206693,-0.220867 0.314174,-0.553939 0.314174,-0.99331l0 -23.7733c0,-0.440552 -0.107481,-0.773624 -0.314174,-1.0004 -0.206693,-0.219686 -0.574017,-0.325985 -1.09607,-0.325985l-0.942522 0 0 -1.0004 8.92916 0c2.40001,0 4.25789,0.552757 5.56065,1.65945zm-9.63074 0.667325l0 10.8083 3.44292 0c1.56969,0 2.87363,-0.503151 3.91655,-1.49646 1.04174,-1.0004 1.56969,-2.55355 1.56969,-4.65946 0,-1.87914 -0.474804,-3.34725 -1.41024,-4.40434 -0.942522,-1.05 -2.40591,-1.57441 -4.39017,-1.57441l-1.71851 0c-0.420474,0 -0.761813,0.1063 -1.02166,0.325985 -0.262205,0.226772 -0.388584,0.559844 -0.388584,1.0004z" class="fil0" id="1"></path>
  <path d="M138.455 64.6348l0 0.999215 -8.14727 0 0 -0.999215 1.41024 0c0.520868,0 0.889373,-0.1063 1.09607,-0.333072 0.207875,-0.220867 0.314174,-0.553939 0.314174,-0.99331l0 -23.2772c0,-0.88701 -0.0531498,-1.38307 -0.16063,-1.49646 -0.0992129,-0.1063 -0.520868,-0.162993 -1.24961,-0.162993 -1.46339,0 -2.48032,0.276379 -3.05434,0.829136 -0.575198,0.553939 -1.28268,2.0504 -2.1189,4.48938l-0.935436 -0.162993 1.41024 -6.31892 14.8772 0 1.2567 6.31892 -0.787797 0.162993c-0.836223,-2.3256 -1.48347,-3.79371 -1.95945,-4.40434 -0.467718,-0.609451 -1.43032,-0.914176 -2.89371,-0.914176 -1.04174,0 -1.61693,0.0566931 -1.72441,0.162993 -0.1063,0.113386 -0.153544,0.666144 -0.153544,1.66654l0 23.1072c0,0.439371 0.127559,0.772443 0.387403,0.99331 0.261024,0.226772 0.602364,0.333072 1.02284,0.333072l1.41024 0z" class="fil0" id="12"></path>
  <path d="M162.356 38.2088l-0.467718 0 0 -1.0004 5.64096 0 0 1.0004 -0.629529 0c-0.420474,0 -0.807876,0.162993 -1.17638,0.496064 -0.367324,0.333072 -0.654333,0.943703 -0.861026,1.82953l-6.42403 25.0997 -0.935436 0 -5.80159 -25.0997c-0.100394,-0.77953 -0.287009,-1.36181 -0.548033,-1.74449 -0.259843,-0.389765 -0.648427,-0.581104 -1.16929,-0.581104l-0.788979 0 0 -1.0004 6.73703 0 0 1.0004 -0.627167 0c-0.522049,0 -0.863388,0.162993 -1.01693,0.496064 -0.153544,0.333072 -0.179528,0.773624 -0.0803152,1.32638l4.39135 19.454 0.307087 0 4.70553 -18.9508c0.207875,-0.77953 0.207875,-1.36181 0,-1.74449 -0.212599,-0.389765 -0.628348,-0.581104 -1.25552,-0.581104z" class="fil0" id="123"></path>
  <path d="M179.992 38.2088l-3.60119 0 0 -1.0004 12.5315 0 0 1.0004 -3.60355 0c-0.413387,0 -0.754727,0.1063 -1.01575,0.325985 -0.261024,0.226772 -0.394489,0.559844 -0.394489,1.0004l0 23.7733c0,0.439371 0.133465,0.772443 0.394489,0.99331 0.261024,0.226772 0.602364,0.333072 1.01575,0.333072l3.60355 0 0 0.999215 -12.5315 0 0 -0.999215 3.60119 0c0.522049,0 0.889373,-0.1063 1.09607,-0.333072 0.207875,-0.220867 0.314174,-0.553939 0.314174,-0.99331l0 -23.7733c0,-0.440552 -0.1063,-0.773624 -0.314174,-1.0004 -0.206693,-0.219686 -0.574017,-0.325985 -1.09607,-0.325985z" class="fil0" id="1234"></path>
  <path d="M210.71 55.0809c-0.988585,-1.05591 -2.53229,-2.07756 -4.61694,-3.07796 -2.82048,-1.33347 -4.75277,-2.49686 -5.79569,-3.48899 -1.04882,-1.0004 -1.57087,-2.55355 -1.57087,-4.65946 0,-1.66063 0.655514,-3.24214 1.95827,-4.73151 1.31103,-1.49646 3.16182,-2.24764 5.56183,-2.24764 1.04882,0 2.03741,0.191339 2.97993,0.581104 0.936617,0.389765 1.61811,0.582285 2.0315,0.582285 0.315355,0 0.602364,-0.0850396 0.862207,-0.249213 0.261024,-0.162993 0.494883,-0.467718 0.709845,-0.914176l0.621262 6.81498 -0.783073 0.334253c-0.935436,-2.32678 -1.90394,-3.90828 -2.89371,-4.7386 -0.995672,-0.829136 -2.27127,-1.24725 -3.84214,-1.24725 -1.97953,0 -3.34253,0.581104 -4.07009,1.74449 -0.729923,1.16339 -1.09725,2.41064 -1.09725,3.74411 0,1.213 0.34134,2.18505 1.01693,2.90788 0.680317,0.716931 2.53229,1.80237 5.56065,3.24214 2.50513,1.10551 4.31104,2.35394 5.40592,3.73702 1.09607,1.38307 1.64528,3.02127 1.64528,4.90749 0,1.99371 -0.655514,3.76655 -1.95945,5.3197 -1.30276,1.54607 -3.20788,2.32678 -5.71419,2.32678 -1.05,0 -2.01142,-0.198426 -2.9008,-0.582285 -0.889373,-0.389765 -1.58977,-0.581104 -2.11064,-0.581104 -0.315355,0 -0.629529,0.1063 -0.943703,0.325985 -0.312993,0.226772 -0.681498,0.503151 -1.09607,0.837404l-1.2567 -8.14963 0.942522 -0.333072c0.728742,2.77324 1.75158,4.68781 3.05434,5.73781 1.30394,1.05 2.7945,1.5815 4.46458,1.5815 1.77875,0 3.10749,-0.561025 3.99686,-1.66654 0.882286,-1.1067 1.32992,-2.71654 1.32992,-4.81655 0,-1.1126 -0.493702,-2.19095 -1.49056,-3.24095z" class="fil0" id="12345"></path>
  <path d="M234.698 64.6348l0 0.999215 -8.14727 0 0 -0.999215 1.41024 0c0.520868,0 0.889373,-0.1063 1.09607,-0.333072 0.207875,-0.220867 0.314174,-0.553939 0.314174,-0.99331l0 -23.2772c0,-0.88701 -0.0531498,-1.38307 -0.16063,-1.49646 -0.0992129,-0.1063 -0.520868,-0.162993 -1.24961,-0.162993 -1.46339,0 -2.48032,0.276379 -3.05434,0.829136 -0.575198,0.553939 -1.28268,2.0504 -2.1189,4.48938l-0.935436 -0.162993 1.41024 -6.31892 14.8772 0 1.2567 6.31892 -0.787797 0.162993c-0.836223,-2.3256 -1.48347,-3.79371 -1.95945,-4.40434 -0.467718,-0.609451 -1.43032,-0.914176 -2.89371,-0.914176 -1.04174,0 -1.61693,0.0566931 -1.72441,0.162993 -0.1063,0.113386 -0.153544,0.666144 -0.153544,1.66654l0 23.1072c0,0.439371 0.127559,0.772443 0.387403,0.99331 0.261024,0.226772 0.602364,0.333072 1.02284,0.333072l1.41024 0z" class="fil0" id="123456"></path>
  <path d="M259.065 62.308l-1.56378 -7.31223 -7.0512 0 -1.41024 6.31183c-0.206693,1.0004 -0.206693,1.80237 0,2.41182 0.21378,0.610632 0.681498,0.915357 1.41024,0.915357l0.474804 0 0 0.999215 -5.80159 0 0 -0.999215 0.474804 0c0.414568,0 0.781892,-0.134646 1.09607,-0.412206 0.314174,-0.276379 0.522049,-0.751183 0.628348,-1.41733l6.10868 -25.4339 2.34686 -0.829136 5.95395 26.2631c0.207875,0.666144 0.467718,1.14095 0.783073,1.41733 0.314174,0.27756 0.680317,0.412206 1.09488,0.412206l0.468899 0 0 0.999215 -6.73112 0 0 -0.999215 0.621262 0c0.629529,0 1.02284,-0.191339 1.17638,-0.582285 0.16063,-0.389765 0.133465,-0.970869 -0.0803152,-1.74449zm-1.71733 -8.31144l-3.13347 -13.7953 -0.16063 0 -3.28938 13.7953 6.58348 0z" class="fil0" id="1234567"></path>
  <polygon points="40.5627,8.58782 40.5214,8.63152 40.48,8.67404 40.4387,8.71774 40.3985,8.76026 40.3572,8.80396 40.3159,8.84648 40.2757,8.89018 40.2344,8.9327 40.193,9.01892 40.1529,9.06144 40.1115,9.10514 40.0702,9.19136 40.0289,9.23388 39.9887,9.3201 39.9474,9.36381 39.906,9.45003 39.8659,9.49255 39.8245,9.57877 39.7832,9.62129 39.743,9.70751 39.7017,9.75121 39.6603,9.83743 39.619,9.87995 39.5789,9.92365 39.5375,10.0524 39.4962,10.0949 39.456,10.1811 39.4147,10.2248 39.3733,10.3111 39.3332,10.3973 39.2918,10.4398 39.2505,10.4835 39.2092,10.6122 39.169,10.6985 39.1277,10.741 39.0863,10.7847 39.0462,10.8709 39.0048,10.9571 38.9635,10.9996 38.9222,11.0859 38.882,11.1284 38.8407,11.2146 38.7993,11.2583 38.7592,11.3445 38.7178,11.387 38.6765,11.4733 38.6363,11.5595 38.595,11.602 38.5537,11.6882 38.5123,11.7744 38.4722,11.8181 38.4308,11.8607 38.3895,11.9469 38.3493,12.0331 38.308,12.1193 38.2666,12.1618 38.2265,12.2055 38.1851,12.2481 38.1438,12.2918 38.1025,12.378 38.0623,12.4642 38.021,12.5067 37.9796,12.5504 37.9395,12.6355 37.8981,12.6792 37.8568,12.7654 37.8155,12.8079 37.7753,12.8516 37.734,12.9378 37.6926,12.9804 37.6525,13.0241 37.6111,13.1103 37.5698,13.1953 37.5296,13.2815 37.4883,13.3252 37.447,13.4115 37.4056,13.4977 37.3655,13.5839 37.3241,13.6701 37.2828,13.7126 37.2426,13.8414 37.2013,13.9276 37.1599,14.0138 37.1198,14.0575 37.0785,14.1437 37.0371,14.2725 36.9958,14.3587 36.9556,14.4449 36.9143,14.5737 36.8729,14.6599 36.8328,14.7036 36.7914,14.8323 36.7501,14.9185 36.7088,15.0048 36.6686,15.091 36.6273,15.2197 36.5859,15.3485 36.5458,15.4347 36.5044,15.5209 36.4631,15.6508 36.4229,15.7371 36.3816,15.8221 36.3403,15.9083 36.2989,16.0382 36.2588,16.167 36.2174,16.2532 36.1761,16.3394 36.1359,16.4682 36.0946,16.5544 36.0533,16.6406 36.0131,16.7268 35.9718,16.8556 35.9304,16.9418 35.8891,17.0717 35.8489,17.1142 35.8076,17.2441 35.7662,17.3304 35.7261,17.4591 35.6847,17.5016 35.6434,17.6315 35.6032,17.7178 35.5619,17.889 35.5206,17.9327 35.4792,18.0615 35.4391,18.1914 35.3977,18.2339 35.3564,18.3638 35.3162,18.4489 35.2749,18.6213 35.2336,18.7075 35.1922,18.8375 35.1521,18.9237 35.1107,19.0524 35.0694,19.1386 35.0292,19.2674 34.9879,19.3111 34.9466,19.4398 34.9064,19.526 34.8651,19.6548 34.8237,19.7847 34.7824,19.8709 34.7422,19.9997 34.7009,20.0422 34.6595,20.1721 34.6194,20.2583 34.578,20.3871 34.5367,20.4733 34.4966,20.5595 34.4552,20.6882 34.4139,20.8182 34.3725,20.9044 34.3324,20.9906 34.291,21.0756 34.2497,21.1194 34.2095,21.2918 34.1682,21.378 34.1269,21.5068 34.0867,21.5505 34.0454,21.6792 34.004,21.7654 33.9627,21.8942 33.9225,21.9804 33.8812,22.0666 33.8399,22.1953 33.7997,22.2816 33.7584,22.4115 33.717,22.4977 33.6757,22.6264 33.6355,22.7127 33.5942,22.8414 33.5529,22.8851 33.5127,23.0575 33.4714,23.1001 33.43,23.2288 33.3899,23.315 33.3485,23.4449 33.3072,23.5312 33.2658,23.6174 33.2257,23.7024 33.1843,23.7886 33.143,23.9186 33.1028,24.0048 33.0615,24.1335 33.0202,24.2198 32.98,24.3485 32.9387,24.4347 32.8973,24.4784 32.856,24.6072 32.8158,24.7371 32.7745,24.8221 32.7332,24.952 32.693,25.0383 32.6517,25.167 32.6103,25.2532 32.5702,25.2957 32.5288,25.4682 32.4875,25.5119 32.4462,25.6406 32.406,25.7268 32.3647,25.8556 32.3233,25.9418 32.2832,26.0717 32.2418,26.1579 32.2005,26.2442 32.1591,26.3292 32.119,26.4154 32.0776,26.5454 32.0363,26.5879 31.9962,26.7603 31.9548,26.8465 31.9135,26.9328 31.8733,27.0615 31.832,27.1052 31.7906,27.2339 31.7493,27.3202 31.7091,27.4489 31.6678,27.5351 31.6265,27.665 31.5863,27.7513 31.545,27.88 31.5036,27.9662 31.4635,28.095 31.4221,28.1387 31.3808,28.3111 31.3395,28.3536 31.2993,28.5261 31.258,28.6123 31.2166,28.6985 31.1765,28.8272 31.1351,28.9135 31.0938,28.9997 31.0524,29.0859 31.0123,29.2146 30.971,29.3009 30.9296,29.4308 30.8895,29.5158 30.8481,29.6458 30.8068,29.6883 30.7666,29.8182 30.7253,29.9044 30.6839,30.0332 30.6426,30.1194 30.6024,30.2481 30.5611,30.378 30.5198,30.4206 30.4796,30.5493 30.4383,30.6355 30.3969,30.7217 30.3568,30.808 30.3154,30.9379 30.2741,31.0241 30.2328,31.1528 30.1926,31.1954 30.1513,31.3253 30.1099,31.4115 30.0698,31.5402 30.0284,31.6265 29.9871,31.7127 29.9469,31.8414 29.9056,31.9276 29.8643,32.0139 29.8229,32.1001 29.7828,32.2288 29.7414,32.3151 29.7001,32.445 29.6599,32.4875 29.6186,32.6174 29.5772,32.7462 29.5359,32.7887 29.4958,32.9611 29.4544,33.0473 29.4131,33.1761 29.3729,33.2623 29.3316,33.3485 29.2902,33.4347 29.2501,33.5647 29.2087,33.6509 29.1674,33.7796 29.1261,33.8658 29.0859,33.9946 29.0446,34.0808 29.0032,34.2095 28.9631,34.2958 28.9217,34.382 28.8804,34.5119 28.8402,34.5981 28.7989,34.7269 28.7576,34.8131 28.7162,34.9418 28.6761,35.0281 28.6347,35.1143 28.5934,35.2442 28.5532,35.2867 28.5119,35.4155 28.4706,35.5017 28.4304,35.6741 28.3891,35.7603 28.3477,35.8891 28.3064,35.9753 28.2662,36.1052 28.2249,36.1914 28.1835,36.3202 28.1434,36.4064 28.102,36.5788 28.0607,36.6651 28.0194,36.7938 27.9792,36.88 27.9379,36.9662 27.8965,37.0525 27.8564,37.1812 27.815,37.2674 27.7737,37.3536 27.7335,37.4824 27.6922,37.5686 27.6509,37.7411 27.6095,37.8273 27.5694,37.9135 27.528,37.9997 27.4867,38.1285 27.4465,38.2147 27.4052,38.3009 27.3639,38.4308 27.3237,38.5159 27.2824,38.6458 27.241,38.732 27.1997,38.8607 27.1595,38.947 27.1182,39.0757 27.0768,39.1619 27.0367,39.3344 26.9954,39.4206 26.954,39.5493 26.9139,39.6355 26.8725,39.7218 26.8312,39.8517 26.7898,39.9379 26.7497,40.0666 26.7083,40.1954 26.667,40.3253 26.6268,40.4115 26.5855,40.5828 26.5442,40.669 26.5028,40.7552 26.4627,40.8415 26.4213,40.9714 26.38,41.0564 26.3398,41.1426 26.2985,41.2726 26.2572,41.3588 26.217,41.4875 26.1757,41.5737 26.1343,41.7025 26.093,41.7462 26.0528,41.8749 26.0115,42.0048 25.9702,42.1336 25.93,42.1761 25.8887,42.306 25.8473,42.4348 25.8072,42.521 25.7658,42.6072 25.7245,42.7359 25.6831,42.8659 25.643,42.9521 25.6016,43.0808 25.5603,43.1671 25.5202,43.2958 25.4788,43.382 25.4375,43.4682 25.3961,43.5982 25.356,43.6844 25.3146,43.8131 25.2733,43.8993 25.2331,44.0718 25.1918,44.1143 25.1505,44.2867 25.1103,44.373 25.069,44.4592 25.0276,44.5454 24.9863,44.6741 24.9461,44.7604 24.9048,44.8891 24.8635,45.019 24.8233,45.1478 24.782,45.234 24.7406,45.3202 24.7005,45.4489 24.6591,45.4926 24.6178,45.6214 24.5764,45.7076 24.5363,45.8801 24.495,45.9226 24.4536,46.0525 24.4135,46.1812 24.3721,46.2675 24.3308,46.3537 24.2906,46.4399 24.2493,46.5686 24.2079,46.6986 24.1666,46.8273 24.1264,46.9135 24.0851,47.086 24.0438,47.1285 24.0036,47.2584 23.9623,47.3446 23.9209,47.4734 23.8796,47.5596 23.8394,47.6883 23.7981,47.8182 23.7568,47.9033 23.7166,48.0332 23.6753,48.1194 23.6339,48.2056 23.5938,48.3344 23.5524,48.4631 23.5111,48.5068 23.4698,48.6793 23.4296,48.808 23.3883,48.9379 23.3469,48.9805 23.3068,49.1092 23.2654,49.1954 23.2241,49.2816 23.1839,49.4116 23.1426,49.5403 23.1012,49.6265 23.0599,49.7127 23.0197,49.8415 22.9784,49.9277 22.9371,50.0564 22.8969,50.1001 22.8556,50.2726 22.8142,50.3588 22.7741,50.4875 22.7327,50.5738 22.6914,50.7462 22.6501,50.8324 22.6099,50.9186 22.5686,51.0049 22.5272,51.1336 22.4871,51.2623 22.4457,51.3486 22.4044,51.521 22.3631,51.5647 22.3229,51.6935 22.2816,51.7797 22.2402,51.9084 22.2001,51.9946 22.1587,52.1234 22.1174,52.2533 22.0772,52.2958 22.0359,52.4683 21.9946,52.5545 21.9532,52.6832 21.9131,52.7694 21.8717,52.8557 21.8304,52.9419 21.7902,53.1143 21.7489,53.2005 21.7075,53.3293 21.6674,53.4155 21.626,53.5454 21.5847,53.6316 21.5434,53.7604 21.5032,53.8466 21.4619,53.9328 21.4205,54.0616 21.3804,54.1478 21.339,54.2765 21.2977,54.3628 21.2575,54.5352 21.2162,54.5789 21.1749,54.7076 21.1335,54.7939 21.0934,54.9226 21.052,55.0088 21.0107,55.1387 20.9705,55.2675 20.9292,55.3537 20.8879,55.4824 20.8465,55.6124 20.8064,55.6986 20.765,55.7411 20.7237,55.8698 20.6835,55.9998 20.6422,56.1285 20.6008,56.1722 20.5607,56.3009 20.5193,56.4297 20.478,56.5159 20.4367,56.6021 20.3965,56.732 20.3552,56.8183 20.3138,56.9033 20.2737,57.0332 20.2323,57.1195 20.191,57.2482 20.1497,57.3344 20.1095,57.4206 20.0682,57.5069 20.0268,57.6356 19.9867,57.7655 19.9453,57.8517 19.904,57.9805 19.8638,58.0667 19.8225,58.1954 19.7812,58.2817 19.7398,58.3679 19.6997,58.4541 19.6583,58.5828 19.617,58.7128 19.5768,58.799 19.5355,58.9277 19.4941,59.0139 19.454,59.1002 19.4127,59.2289 19.3713,59.3151 19.33,59.4013 19.2898,59.5301 19.2485,59.6163 19.2071,59.7462 19.167,59.8325 19.1256,59.9612 19.0843,60.0899 19.0441,60.1762 19.0028,60.2624 18.9615,60.3486 18.9201,60.4785 18.88,60.5636 18.8386,60.6935 18.7973,60.7797 18.7571,60.8659 18.7158,60.9947 18.6745,61.0809 18.6343,61.1671 18.593,61.2958 18.5516,61.3821 18.5103,61.512 18.4701,61.597 18.4288,61.6832 18.3875,61.8132 18.3473,61.8994 18.306,61.9856 18.2646,62.0718 18.2233,62.2006 18.1831,62.2868 18.1418,62.4155 18.1004,62.5455 18.0603,62.6742 18.0189,62.7167 17.9776,62.8029 17.9375,62.9329 17.8961,63.0191 17.8548,63.1478 17.8134,63.234 17.7733,63.3628 17.7319,63.449 17.6906,63.5789 17.6504,63.6214 17.6091,63.7502 17.5678,63.8364 17.5276,63.9663 17.4863,64.0525 17.4449,64.1813 17.4036,64.2238 17.3634,64.3537 17.3221,64.4399 17.2808,64.5262 17.2406,64.5687 17.1993,64.6549 17.1579,64.7411 17.1166,64.8273 17.0764,64.9561 17.0351,64.9998 16.9937,65.086 16.9536,65.1722 16.9123,65.2148 16.8709,65.2573 16.8308,65.301 16.7894,65.4297 16.7481,65.4734 16.7067,65.5596 16.6666,65.6022 16.6252,65.6884 16.5839,65.7321 16.5437,65.7746 16.5024,65.8171 16.4611,65.8608 16.4209,65.9033 16.3796,65.947 16.3382,65.9896 16.2969,66.0333 16.2154,66.0758 16.1741,66.1195 16.0926,66.162 16.0512,66.2057 15.9697,66.2482 15.8871,66.2919 15.8469,66.3344 15.7642,66.377 15.6414,66.4207 15.5599,66.4632 15.4371,66.5069 15.3544,66.5494 15.2315,66.5931 15.0272,66.6356 14.9044,66.6793 14.6575,66.7218 14.5347,66.7655 14.3304,66.8081 14.1662,66.8506 14.1248,66.8943 14.0835,66.9368 14.0835,69.1762 14.1248,69.2624 14.2477,69.3061 14.9859,69.3486 15.0674,69.3486 24.7406,69.3061 24.8233,69.2624 24.9048,69.2199 24.9461,69.1762 24.9863,69.0037 25.0276,68.3152 25.0276,66.8506 24.9863,66.377 24.9461,66.2919 24.9048,66.162 24.8635,66.1195 24.8233,66.0333 24.782,65.9896 24.7406,65.8608 24.7005,65.7746 24.6591,65.6022 24.6178,65.4297 24.5764,65.1722 24.5764,64.9998 24.6178,64.6986 24.6591,64.5262 24.7005,64.3537 24.7406,64.2238 24.782,64.0951 24.8233,63.9663 24.8635,63.7502 24.9048,63.6651 24.9461,63.4927 24.9863,63.4065 25.0276,63.234 25.069,63.1053 25.1103,62.9754 25.1505,62.8466 25.1918,62.7604 25.2331,62.588 25.2733,62.5018 25.3146,62.3293 25.356,62.2431 25.3961,62.1143 25.4375,62.0281 25.4788,61.8994 25.5202,61.8132 25.5603,61.6407 25.6016,61.5545 25.643,61.4258 25.6831,61.3395 25.7245,61.2096 25.7658,61.1234 25.8072,60.9947 25.8473,60.8659 25.8887,60.8222 25.93,60.6498 25.9702,60.5636 26.0115,60.3923 26.0528,60.3486 26.093,60.2624 26.1343,60.1336 26.1757,60.0037 26.217,59.9612 26.2572,59.8325 26.2985,59.7025 26.3398,59.6163 26.38,59.4876 26.4213,59.4013 26.4627,59.2726 26.5028,59.1864 26.5442,59.0565 26.5855,58.9702 26.6268,58.8415 26.667,58.7553 26.7083,58.6265 26.7497,58.5403 26.7898,58.4104 26.8312,58.3254 26.8725,58.1954 26.9139,58.0667 26.954,57.9805 26.9954,57.8517 27.0367,57.7655 27.0768,57.6356 27.1182,57.5494 27.1595,57.4206 27.1997,57.3769 27.241,57.2482 27.2824,57.1195 27.3237,56.9895 27.3639,56.9033 27.4052,56.8183 27.4465,56.6883 27.4867,56.6021 27.528,56.4734 27.5694,56.3435 27.5694,56.2147 27.6509,56.2147 27.6922,56.0423 27.7335,55.9561 27.7737,55.8273 27.815,55.7411 27.8564,55.6124 27.8965,55.4824 27.9379,55.3962 27.9792,55.31 28.0194,55.1813 28.0607,55.0525 28.102,54.9663 28.1434,54.8364 28.1835,54.7502 28.2249,54.6651 28.2662,54.4927 28.3064,54.4065 28.3477,54.2765 28.3891,54.1915 28.4304,54.0616 28.4706,53.9328 28.5119,53.8029 28.5532,53.7167 28.5934,53.6316 28.6347,53.5454 28.6761,53.373 28.7162,53.2431 28.7576,53.1143 28.7989,53.0281 28.8402,52.8994 28.8804,52.8131 28.9217,52.6832 28.9631,52.5982 29.0032,52.4683 29.0446,52.382 29.0859,52.2958 29.1261,52.1234 29.1674,52.0383 29.2087,51.9084 29.2501,51.8222 29.2902,51.736 29.3316,51.6072 29.3729,51.4785 29.4131,51.3923 29.4544,51.306 29.4958,51.1761 29.5359,51.0474 29.5359,50.8749 29.6186,50.8749 29.6599,50.7025 29.7001,50.6163 29.7414,50.4875 29.7828,50.445 29.8229,50.2726 29.8643,50.1427 29.9056,50.0564 29.9469,49.9702 29.9871,49.8415 30.0284,49.7127 30.0698,49.6265 30.1099,49.4966 30.1513,49.4116 30.1926,49.2816 30.2328,49.1954 30.2741,49.023 30.3154,48.9379 30.3568,48.808 30.3969,48.7218 30.4383,48.5931 30.4796,48.5068 30.5198,48.3781 30.5611,48.2482 30.6024,48.1194 30.6426,47.9895 30.6839,47.9033 30.7253,47.7745 30.7666,47.6883 30.8068,47.5596 30.8481,47.4734 30.8895,47.3446 30.9296,47.2147 30.971,47.086 31.0123,46.9997 31.0524,46.9135 31.0938,46.8273 31.1351,46.7411 31.1765,46.5686 31.2166,46.4824 31.258,46.3537 31.2993,46.2675 31.3395,46.1387 31.3808,46.0525 31.4221,45.9226 31.4635,45.8363 31.5036,45.6651 31.545,45.6214 31.5863,45.4926 31.6265,45.3202 31.6678,45.234 31.7091,45.1052 31.7493,45.0615 31.7906,44.8891 31.832,44.8029 31.8733,44.6741 31.9135,44.5879 31.9548,44.4592 31.9962,44.3293 32.0363,44.2005 32.0776,44.1143 32.119,44.0281 32.1591,43.8556 32.2005,43.7694 32.2418,43.6407 32.2832,43.5545 32.3233,43.382 32.3647,43.3395 32.406,43.1671 32.4462,43.0808 32.4875,42.9521 32.5288,42.8659 32.5702,42.7359 32.6103,42.6497 32.6517,42.6072 32.693,42.4348 32.7332,42.306 32.7745,42.1761 32.8158,42.0899 32.856,41.9611 32.8973,41.8749 32.9387,41.7462 32.98,41.6163 33.0202,41.4875 33.0615,41.4013 33.1028,41.2726 33.143,41.1426 33.1843,41.0564 33.2257,40.9277 33.2658,40.8415 33.3072,40.7127 33.3485,40.6265 33.3899,40.4541 33.43,40.3678 33.4714,40.1954 33.5127,40.1529 33.5529,39.9804 33.5942,39.8517 33.6355,39.7655 33.6757,39.6792 33.717,39.593 33.7584,39.4206 33.7997,39.3344 33.8399,39.1619 33.8812,39.0757 33.9225,38.947 33.9627,38.8607 34.004,38.732 34.0454,38.6458 34.0867,38.5159 34.1269,38.3871 34.1682,38.2584 34.2095,38.1722 34.2497,38.0422 34.291,37.956 34.3324,37.871 34.3725,37.7411 34.4139,37.6123 34.4552,37.4824 34.4966,37.3962 34.5367,37.2249 34.578,37.1387 34.6194,37.0088 34.6595,36.88 34.7009,36.7938 34.7422,36.6651 34.7824,36.5788 34.8237,36.4064 34.8651,36.2777 34.9064,36.1477 34.9466,36.1052 34.9879,35.9753 35.0292,35.8029 35.0694,35.6741 35.1107,35.5879 35.1521,35.5017 35.1922,35.3729 35.2336,35.2005 35.2749,35.158 35.3162,35.0718 35.3564,34.9418 35.3977,34.8556 35.4391,34.6843 35.4792,34.5981 35.5206,34.4257 35.5619,34.3395 35.6032,34.2095 35.6434,34.0808 35.6847,33.9521 35.7261,33.8221 35.7662,33.7796 35.8076,33.6509 35.8489,33.4784 35.8891,33.3485 35.9304,33.2623 35.9718,33.1761 36.0131,33.091 36.0533,32.9186 36.0946,32.8324 36.1359,32.7462 36.1761,32.6174 36.2174,32.4875 36.2588,32.4013 36.2989,32.2288 36.3403,32.1001 36.3816,32.0139 36.4229,31.9276 36.4631,31.7989 36.5044,31.6265 36.5458,31.5402 36.5859,31.4115 36.6273,31.3253 36.6686,31.1528 36.7088,31.0666 36.7501,30.9379 36.7914,30.8517 36.8328,30.7217 36.8729,30.6355 36.9143,30.5068 36.9556,30.378 36.9958,30.2918 37.0371,30.1194 37.0785,30.0757 37.1198,29.9044 37.1599,29.8182 37.2013,29.6458 37.2426,29.6021 37.2828,29.4308 37.3241,29.3446 37.3655,29.2146 37.4056,29.0859 37.447,28.9997 37.4883,28.8709 37.5296,28.7847 37.5698,28.6123 37.6111,28.5261 37.6525,28.3536 37.6926,28.2674 37.734,28.095 37.7753,28.0087 37.8155,27.88 37.8568,27.7938 37.8981,27.665 37.9395,27.5351 37.9796,27.4489 38.021,27.2776 38.0623,27.1914 38.1025,27.019 38.1438,26.9328 38.1851,26.804 38.2265,26.7178 38.2666,26.5454 38.308,26.4154 38.3493,26.2867 38.3895,26.2005 38.4308,26.0717 38.4722,25.9418 38.5123,25.8131 38.5537,25.7268 38.595,25.5981 38.6363,25.4682 38.6765,25.4257 38.7178,25.2107 38.7592,25.1245 38.7993,24.952 38.8407,24.9083 38.882,24.8221 38.9222,24.6934 38.9635,24.5646 39.0048,24.4347 39.0462,24.3485 39.0863,24.2198 39.1277,24.091 39.169,23.9186 39.2092,23.8749 39.2505,23.7461 39.2918,23.6174 39.3332,23.4449 39.3733,23.3587 39.4147,23.1863 39.456,23.0575 39.4962,22.8851 39.5375,22.7989 39.5789,22.7127 39.619,22.5402 39.6603,22.454 39.7017,22.3253 39.704,22.232 39.7832,22.2816 39.8245,22.3678 39.8659,22.454 39.906,22.4977 39.9474,22.6264 39.9887,22.7127 40.0289,22.8414 40.0702,22.9713 40.1115,23.0575 40.1529,23.1863 40.193,23.3587 40.2344,23.4449 40.2757,23.5312 40.3159,23.6599 40.3572,23.7886 40.3985,23.9186 40.4387,24.0048 40.48,24.1335 40.5214,24.2198 40.5627,24.3922 40.6029,24.4347 40.6442,24.5646 40.6855,24.6934 40.7257,24.7796 40.767,24.9083 40.8084,24.9946 40.8485,25.1245 40.8899,25.167 40.9312,25.3394 40.9726,25.4257 41.0127,25.5544 41.0541,25.5981 41.0954,25.7705 41.1355,25.8556 41.1769,25.9855 41.2182,26.0717 41.2596,26.2442 41.2997,26.2867 41.3411,26.4591 41.3824,26.5454 41.4226,26.5879 41.4639,26.7178 41.5052,26.8465 41.5454,26.9328 41.5867,27.019 41.6281,27.1477 41.6694,27.2339 41.7096,27.3639 41.7509,27.4489 41.7922,27.5788 41.8324,27.7076 41.8737,27.7938 41.9151,27.88 41.9552,28.0087 41.9966,28.1812 42.0379,28.2249 42.0793,28.3536 42.1194,28.4398 42.1607,28.6123 42.2021,28.6548 42.2422,28.7847 42.2836,28.9135 42.3249,28.9997 42.3651,29.1284 42.4064,29.2146 42.4478,29.3446 42.4891,29.4308 42.5293,29.6021 42.5706,29.6883 42.6119,29.8182 42.6521,29.9469 42.6934,30.0332 42.7348,30.1194 42.7761,30.2481 42.8163,30.3343 42.8576,30.4643 42.8989,30.593 42.9391,30.6792 42.9804,30.7654 43.0218,30.8517 43.0619,30.9804 43.1033,31.1091 43.1446,31.2391 43.1859,31.2816 43.2261,31.454 43.2674,31.4977 43.3088,31.669 43.3489,31.7127 43.3903,31.8851 43.4316,31.9713 43.473,32.0576 43.5131,32.1863 43.5545,32.2288 43.5958,32.4013 43.6359,32.445 43.6773,32.5737 43.7186,32.6599 43.7588,32.7887 43.8001,32.8749 43.8415,33.0048 43.8828,33.091 43.923,33.2198 43.9643,33.3485 44.0056,33.3922 44.0458,33.521 44.0871,33.6072 44.1285,33.7359 44.1686,33.8221 44.21,33.9521 44.2513,34.0383 44.2926,34.2095 44.3741,34.2095 44.3741,34.382 44.4155,34.4682 44.4556,34.5119 44.497,34.6406 44.5383,34.7694 44.5785,34.8556 44.6198,34.9418 44.6611,35.0718 44.7025,35.158 44.7426,35.2867 44.784,35.3729 44.8253,35.5454 44.8655,35.6316 44.9068,35.7603 44.9482,35.8466 44.9895,35.9328 45.0297,36.019 45.071,36.1477 45.1123,36.234 45.1525,36.3202 45.1938,36.4489 45.2352,36.5351 45.2753,36.6651 45.3167,36.7513 45.358,36.9225 45.3993,37.0088 45.4395,37.095 45.4808,37.1812 45.5222,37.3111 45.5623,37.4399 45.6037,37.5261 45.645,37.6548 45.6852,37.7411 45.7265,37.871 45.7678,37.9135 45.8092,38.0859 45.8493,38.1722 45.8907,38.2584 45.932,38.3871 45.9722,38.4733 46.0135,38.5596 46.0549,38.6883 46.095,38.8182 46.1364,38.947 46.1777,39.0757 46.219,39.1194 46.2592,39.2918 46.3005,39.3344 46.3419,39.5068 46.382,39.593 46.4234,39.7218 46.4647,39.7655 46.506,39.8942 46.5462,39.9804 46.5875,40.0666 46.6289,40.1092 46.669,40.1529 46.7104,40.1954 46.7919,40.2391 46.8745,40.2816 46.9974,40.3253 47.0789,40.3678 47.1615,40.4115 47.243,40.4541 47.3659,40.4978 47.4072,40.5403 47.6116,40.5828 47.6116,40.7127 47.5714,40.7552 47.5301,40.7989 47.4887,40.8415 47.4486,40.9277 47.4072,40.9714 47.3659,41.1001 47.3257,41.1426 47.2844,41.2726 47.243,41.3588 47.2017,41.445 47.1615,41.4875 47.1202,41.5737 47.0789,41.66 47.0387,41.7025 46.9974,41.7887 46.956,41.9186 46.9159,41.9611 46.8745,42.0474 46.8332,42.1336 46.7919,42.2198 46.7517,42.306 46.7104,42.3485 46.669,42.4348 46.6289,42.521 46.5875,42.6072 46.5462,42.6497 46.506,42.7796 46.4647,42.8222 46.4234,42.9084 46.382,42.9946 46.3419,43.0808 46.3005,43.1245 46.2592,43.2096 46.219,43.2958 46.1777,43.3395 46.1364,43.4682 46.095,43.5545 46.0549,43.5982 46.0135,43.6844 45.9722,43.7269 45.932,43.8556 45.8907,43.8993 45.8493,44.0281 45.8092,44.0718 45.7678,44.2005 45.7265,44.243 45.6852,44.3293 45.645,44.4155 45.6037,44.5017 45.5623,44.5454 45.5222,44.6316 45.4808,44.7604 45.4395,44.8029 45.3993,44.8891 45.358,44.9753 45.3167,45.0615 45.2753,45.1052 45.2352,45.1915 45.1938,45.2765 45.1525,45.4064 45.1123,45.4489 45.071,45.5352 45.0297,45.6214 44.9895,45.7076 44.9482,45.7938 44.9068,45.8363 44.8655,45.9663 44.8253,46.0525 44.784,46.095 44.7426,46.1812 44.7025,46.2675 44.6611,46.31 44.6198,46.3962 44.5785,46.4824 44.5383,46.5686 44.497,46.6549 44.4556,46.7411 44.4155,46.8273 44.3741,46.8698 44.3328,46.956 44.2926,46.9997 44.2513,47.1285 44.21,47.1722 44.1686,47.2584 44.1285,47.3446 44.0871,47.4297 44.0458,47.5159 44.0056,47.6021 43.9643,47.6883 43.923,47.7745 43.8828,47.8182 43.8415,47.9033 43.8001,47.9895 43.7588,48.0757 43.7186,48.2056 43.6773,48.2482 43.6359,48.3344 43.5958,48.4206 43.5545,48.4631 43.5131,48.5493 43.473,48.6356 43.4316,48.7218 43.3903,48.808 43.3489,48.9379 43.3088,48.9805 43.2674,49.1092 43.2261,49.1529 43.1859,49.2391 43.1446,49.2816 43.1033,49.4116 43.0619,49.4966 43.0218,49.5828 42.9804,49.6265 42.9391,49.7553 42.8989,49.8415 42.8576,49.9277 42.8163,49.9702 42.7761,50.0564 42.7348,50.1427 42.6934,50.2289 42.6521,50.3151 42.6119,50.4013 42.5706,50.4875 42.5293,50.5738 42.4891,50.66 42.4478,50.7025 42.4064,50.7887 42.3651,50.8749 42.3249,50.9612 42.2836,51.0474 42.2422,51.1336 42.2021,51.2623 42.1607,51.306 42.1194,51.3923 42.0793,51.4785 42.0379,51.5647 41.9966,51.6072 41.9552,51.6935 41.9151,51.8222 41.8737,51.9084 41.8324,51.9521 41.7922,52.0383 41.7509,52.1234 41.7096,52.2096 41.6694,52.2958 41.6281,52.382 41.5867,52.4683 41.5454,52.512 41.5052,52.5982 41.4639,52.6832 41.4226,52.7694 41.3824,52.8557 41.3411,52.8994 41.2997,53.0281 41.2596,53.0718 41.2182,53.1568 41.1769,53.2431 41.1355,53.3293 41.0954,53.373 41.0541,53.5017 41.0127,53.5454 40.9726,53.6316 40.9312,53.7167 40.8899,53.8029 40.8485,53.8891 40.8084,53.9753 40.767,54.019 40.7257,54.1053 40.6855,54.1478 40.6442,54.234 40.6029,54.3628 40.5627,54.4065 40.5214,54.4927 40.48,54.5789 40.48,54.7076 40.3985,54.7076 40.3572,54.7939 40.3159,54.8801 40.2757,54.9663 40.2344,55.0525 40.193,55.1387 40.1529,55.225 40.1115,55.31 40.0702,55.3962 40.0289,55.4399 39.9887,55.5261 39.9474,55.5687 39.906,55.6986 39.8659,55.7411 39.8245,55.8698 39.7832,55.9561 39.743,56.0423 39.7017,56.086 39.6603,56.1722 39.619,56.2584 39.5789,56.3435 39.5375,56.4297 39.4962,56.5159 39.456,56.6021 39.4147,56.6458 39.3733,56.7746 39.3332,56.8608 39.2918,56.947 39.2505,56.9895 39.2092,57.0758 39.169,57.2057 39.1277,57.2482 39.0863,57.3344 39.0462,57.4206 39.0048,57.5069 38.9635,57.5494 38.9222,57.6793 38.882,57.7218 38.8407,57.8517 38.7993,57.8943 38.7592,58.023 38.7178,58.0667 38.6765,58.1529 38.6363,58.2391 38.595,58.2817 38.5537,58.3679 38.5123,58.4541 38.4722,58.5403 38.4308,58.6265 38.3895,58.6691 38.3493,58.7553 38.308,58.799 38.2666,58.8852 38.2265,58.9702 38.1851,59.0565 38.1438,59.1427 38.1025,59.1864 38.0623,59.3151 38.021,59.4013 37.9796,59.4876 37.9395,59.5738 37.8981,59.66 37.8568,59.7462 37.8155,59.7888 37.7753,59.875 37.734,59.9612 37.6926,60.0474 37.6525,60.1336 37.6111,60.2199 37.5698,60.3061 37.5296,60.3486 37.4883,60.4348 37.447,60.521 37.4056,60.6073 37.3655,60.6935 37.3241,60.7797 37.2828,60.8222 37.2426,60.9521 37.2013,60.9947 37.1599,61.0372 37.1198,61.1671 37.0785,61.2096 37.0371,61.2958 36.9958,61.3821 36.9556,61.4683 36.9143,61.5545 36.8729,61.6407 36.8328,61.6832 36.7914,61.7695 36.7501,61.8132 36.7088,61.9419 36.6686,61.9856 36.6273,62.0718 36.5859,62.1569 36.5458,62.2431 36.5044,62.2868 36.4631,62.373 36.4229,62.4592 36.3816,62.5455 36.3403,62.6305 36.2989,62.6742 36.2588,62.8029 36.2174,62.8466 36.1761,62.9329 36.1359,63.0191 36.0946,63.1053 36.0533,63.1478 36.0131,63.234 35.9718,63.3203 35.9304,63.449 35.8891,63.5352 35.8489,63.6214 35.8076,63.7077 35.7662,63.7502 35.7261,63.8364 35.6847,63.8801 35.6434,63.9663 35.6032,64.0525 35.5619,64.1813 35.5206,64.2238 35.4792,64.31 35.4391,64.3962 35.3977,64.4399 35.3564,64.5262 35.3162,64.6124 35.2749,64.6986 35.2336,64.7411 35.1922,64.8273 35.1521,64.9136 35.1107,64.9561 35.0694,65.0423 35.0292,65.086 34.9879,65.1285 34.9466,65.2148 34.9064,65.2573 34.8651,65.3435 34.8237,65.3872 34.7824,65.4297 34.7422,65.5159 34.7009,65.5596 34.6595,65.6022 34.6194,65.6459 34.578,65.6884 34.5367,65.7321 34.4966,65.8171 34.4552,65.8608 34.4139,65.9033 34.3725,65.947 34.3324,65.9896 34.291,66.0333 34.2095,66.0758 34.2095,66.162 34.1269,66.162 34.0867,66.2057 34.0454,66.2482 34.004,66.2919 33.9225,66.3344 33.8812,66.377 33.7997,66.4207 33.7584,66.4632 33.6757,66.5069 33.5942,66.5494 33.5529,66.5931 33.3899,66.6356 33.3485,66.6793 33.2257,66.7218 33.1843,66.7655 33.0202,66.8081 32.8973,66.8506 32.7745,66.8943 32.693,66.9368 32.4875,66.9805 32.2832,67.023 32.0776,67.0667 31.7906,67.1092 31.4635,67.1529 30.5611,67.1955 29.6186,67.1955 29.5359,67.1955 29.4131,67.1955 29.2087,67.1955 29.1674,67.2392 29.1261,67.2817 29.1261,67.7553 29.1674,69.0037 29.2087,69.09 29.2501,69.1337 32.9387,69.1337 34.2095,69.09 35.0694,69.0474 36.0946,69.0037 36.7501,68.9612 37.2426,68.9187 37.8981,68.875 38.595,68.8325 38.6363,68.8325 39.1277,68.8325 39.906,68.7888 40.6855,68.7463 41.5454,68.7026 42.4064,68.66 42.8576,68.6163 43.4316,68.5738 44.21,68.5301 44.8655,68.4876 45.6037,68.4439 46.506,68.4014 47.2017,68.3589 47.8171,68.3152 48.8824,68.2726 49.4978,68.2289 50.2761,68.1864 50.8501,68.1427 51.4242,68.1002 51.8753,68.0565 52.4895,68.014 52.9407,67.9703 52.982,67.9278 52.982,67.7553 52.9407,67.7128 52.858,67.6691 52.4482,67.6266 51.834,67.5829 50.8501,67.5403 50.5218,67.5403 50.399,67.5403 48.6781,67.4966 48.6368,67.4966 48.1454,67.4966 45.0297,67.4541 44.7025,67.4541 44.6611,67.4541 38.9635,67.4541 37.5698,67.4966 36.7088,67.5403 36.0946,67.5829 35.5619,67.6266 35.5206,67.6266 35.4792,67.6266 35.4391,67.6266 35.5206,67.5829 35.5619,67.5403 35.6032,67.4966 35.6434,67.4541 35.6847,67.4104 35.7261,67.3679 35.8076,67.3254 35.8489,67.2817 35.8891,67.2392 35.9304,67.1955 35.9718,67.1529 36.0131,67.1092 36.0533,67.0667 36.0946,67.023 36.1359,66.9805 36.1761,66.9368 36.2174,66.8943 36.2588,66.8506 36.2989,66.8081 36.3403,66.7655 36.3816,66.7218 36.4229,66.6793 36.4631,66.6356 36.4631,66.5494 36.5458,66.5494 36.5859,66.4632 36.6273,66.4207 36.6686,66.377 36.7088,66.3344 36.7501,66.2482 36.7914,66.2057 36.8328,66.1195 36.8328,66.0333 36.9143,66.0333 36.9556,65.947 36.9958,65.9033 37.0371,65.8171 37.0785,65.7746 37.1198,65.6884 37.1599,65.6459 37.2013,65.5596 37.2426,65.5159 37.2828,65.4297 37.3241,65.3872 37.3655,65.301 37.4056,65.2573 37.447,65.1722 37.447,65.086 37.5296,65.086 37.5698,64.9561 37.6111,64.9136 37.6525,64.8273 37.6926,64.7836 37.734,64.6986 37.7753,64.6124 37.8155,64.5687 37.8568,64.4825 37.8981,64.3962 37.9395,64.3537 37.9796,64.31 38.021,64.2238 38.0623,64.1388 38.1025,64.0951 38.1438,64.0088 38.1851,63.9226 38.2265,63.8801 38.2666,63.7939 38.308,63.7077 38.3493,63.6651 38.3895,63.5789 38.4308,63.5352 38.4722,63.449 38.5123,63.4065 38.5537,63.3203 38.595,63.234 38.6363,63.1903 38.6765,63.1478 38.7178,63.0616 38.7592,62.9754 38.7993,62.8892 38.8407,62.8466 38.882,62.7604 38.9222,62.7167 38.9635,62.6305 39.0048,62.588 39.0462,62.5455 39.0863,62.4592 39.1277,62.373 39.169,62.2868 39.2092,62.2431 39.2505,62.1569 39.2918,62.1143 39.3332,62.0281 39.3733,61.9856 39.4147,61.8994 39.456,61.8132 39.4962,61.7695 39.5375,61.6832 39.5789,61.6407 39.619,61.5545 39.6603,61.512 39.7017,61.4258 39.743,61.3821 39.7832,61.2958 39.8245,61.2096 39.8659,61.1671 39.906,61.0809 39.9474,61.0372 39.9887,60.9521 40.0289,60.8659 40.0702,60.8222 40.1115,60.7797 40.1529,60.6935 40.193,60.6498 40.2344,60.5636 40.2757,60.521 40.3159,60.4348 40.3572,60.3486 40.3985,60.2624 40.4387,60.2199 40.48,60.1762 40.5214,60.0899 40.5627,60.0037 40.6029,59.9612 40.6442,59.875 40.6855,59.7888 40.7257,59.7025 40.767,59.66 40.8084,59.6163 40.8485,59.5301 40.8899,59.445 40.9312,59.3588 40.9726,59.3151 41.0127,59.2726 41.0541,59.1864 41.0954,59.1002 41.1355,59.0565 41.1769,58.9702 41.2182,58.8852 41.2596,58.8415 41.2997,58.7553 41.3411,58.6691 41.3824,58.6265 41.4226,58.5403 41.4639,58.4541 41.5052,58.4104 41.5454,58.3254 41.5867,58.2817 41.6281,58.1954 41.6694,58.1092 41.7096,58.0667 41.7509,57.9805 41.7922,57.9368 41.8324,57.8517 41.8737,57.7655 41.9151,57.7218 41.9552,57.6793 41.9966,57.5931 42.0379,57.5069 42.0793,57.4632 42.1194,57.3769 42.1607,57.2919 42.2021,57.2482 42.2422,57.2057 42.2836,57.1195 42.3249,57.0332 42.3651,56.9895 42.4064,56.947 42.4478,56.8183 42.4891,56.7746 42.5293,56.6883 42.5706,56.6458 42.6119,56.5596 42.6521,56.4734 42.6934,56.4297 42.7348,56.3435 42.7761,56.2584 42.8163,56.2147 42.8576,56.1285 42.8989,56.0423 42.9391,55.9998 42.9804,55.9135 43.0218,55.8273 43.0619,55.7411 43.1033,55.6986 43.1446,55.6124 43.1859,55.5261 43.2261,55.4399 43.2674,55.3962 43.3088,55.31 43.3489,55.2675 43.3903,55.1813 43.4316,55.095 43.473,55.0525 43.5131,54.9226 43.5545,54.8801 43.5958,54.8364 43.6359,54.7502 43.6773,54.6651 43.7186,54.6214 43.7588,54.5352 43.8001,54.4927 43.8415,54.449 43.8828,54.3628 43.923,54.2765 43.9643,54.1915 44.0056,54.1478 44.0458,54.0616 44.0871,53.9753 44.1285,53.9328 44.1686,53.8466 44.21,53.7604 44.2513,53.7167 44.2926,53.6316 44.3328,53.5454 44.3741,53.5017 44.4155,53.4155 44.4556,53.373 44.497,53.2868 44.5383,53.2431 44.5785,53.1568 44.6198,53.0718 44.6611,52.9856 44.7025,52.8994 44.7426,52.8557 44.784,52.7694 44.8253,52.7269 44.8655,52.6407 44.9068,52.5545 44.9482,52.512 44.9895,52.4257 45.0297,52.3395 45.071,52.2958 45.1123,52.2096 45.1525,52.1234 45.1938,52.0383 45.2352,51.9946 45.2753,51.9084 45.3167,51.8222 45.358,51.7797 45.3993,51.6935 45.4395,51.6498 45.4808,51.521 45.5222,51.4785 45.5623,51.3923 45.6037,51.306 45.645,51.2198 45.6852,51.1761 45.7265,51.0899 45.7678,51.0049 45.8092,50.9612 45.8493,50.8749 45.8907,50.8324 45.932,50.7025 45.9722,50.66 46.0135,50.6163 46.0549,50.5301 46.095,50.445 46.1364,50.3588 46.1777,50.2726 46.219,50.1864 46.2592,50.1001 46.3005,50.0564 46.3419,49.9702 46.382,49.8852 46.4234,49.8415 46.4647,49.7553 46.506,49.7127 46.5462,49.5828 46.5875,49.4966 46.6289,49.4541 46.669,49.3679 46.7104,49.2816 46.7517,49.2391 46.7919,49.1529 46.8332,49.1092 46.8745,49.023 46.9159,48.9379 46.956,48.8517 46.9974,48.7655 47.0387,48.7218 47.0789,48.6356 47.1202,48.5493 47.1615,48.5068 47.2017,48.4206 47.243,48.3344 47.2844,48.2919 47.3257,48.2056 47.3659,48.1194 47.4072,48.0757 47.4486,47.9895 47.4887,47.947 47.5301,47.8608 47.5714,47.8182 47.6116,47.6883 47.6529,47.6458 47.6942,47.5596 47.7356,47.5159 47.7757,47.4297 47.8171,47.3446 47.8584,47.2584 47.8986,47.1722 47.9399,47.1285 47.9812,47.0423 48.0226,46.956 48.0627,46.8698 48.1041,46.8273 48.1454,46.7411 48.1856,46.6549 48.2269,46.6123 48.2682,46.5686 48.3084,46.4399 48.3497,46.3962 48.3911,46.31 48.4324,46.2675 48.4726,46.1812 48.5139,46.1387 48.5553,46.0525 48.5954,46.0088 48.6368,45.9226 48.6781,45.8801 48.7182,45.8363 48.7596,45.7938 48.8009,45.7076 48.8423,45.6651 48.8824,45.6214 48.9651,45.5789 48.9651,45.6651 49.0466,45.7076 49.0879,45.8363 49.1293,45.9226 49.1694,46.0088 49.2108,46.095 49.2521,46.2249 49.2923,46.31 49.3336,46.3962 49.3749,46.5261 49.4151,46.6123 49.4564,46.7848 49.4978,46.8698 49.5391,46.9997 49.5793,47.086 49.6206,47.2584 49.662,47.3446 49.7021,47.4734 49.7434,47.5596 49.7848,47.6883 49.8249,47.8182 49.8663,47.9033 49.9076,47.9895 49.949,48.0757 49.9891,48.2482 50.0305,48.2919 50.0718,48.4206 50.112,48.5068 50.1533,48.6793 50.1946,48.7218 50.2348,48.8517 50.2761,48.9805 50.3175,49.0667 50.3588,49.1529 50.399,49.2816 50.4403,49.4116 50.4816,49.4541 50.5218,49.6265 50.5631,49.7127 50.6045,49.8415 50.6458,49.9277 50.686,50.0564 50.7273,50.1864 50.7686,50.2726 50.8088,50.3588 50.8501,50.4875 50.8915,50.6163 50.9316,50.7025 50.973,50.8324 51.0143,50.9186 51.0557,51.0474 51.0958,51.1336 51.1372,51.2623 51.1785,51.3486 51.2186,51.4785 51.26,51.5647 51.3013,51.6935 51.3415,51.7797 51.3828,51.8659 51.3828,51.9084 51.3828,51.9521 51.4242,52.0383 51.4655,52.0809 51.5057,52.2533 51.547,52.3395 51.5883,52.4683 51.6285,52.512 51.6698,52.6407 51.7112,52.7269 51.7513,52.8994 51.7927,52.9419 51.834,53.0718 51.8753,53.1568 51.9155,53.2431 51.9568,53.373 51.9982,53.5017 52.0383,53.6316 52.0797,53.6742 52.121,53.8466 52.1624,53.9328 52.2025,54.019 52.2438,54.1053 52.2852,54.234 52.3253,54.3202 52.3667,54.449 52.408,54.5352 52.4482,54.6651 52.4895,54.7502 52.5309,54.8364 52.5722,54.9663 52.6124,55.0525 52.6537,55.1813 52.695,55.31 52.7352,55.4399 52.7765,55.4824 52.8179,55.6549 52.858,55.7411 52.8994,55.8698 52.9407,55.9135 52.982,56.086 53.0222,56.1722 53.0635,56.2584 53.1049,56.4297 53.145,56.5159 53.1864,56.6021 53.2277,56.6883 53.2679,56.8183 53.3092,56.9033 53.3505,57.0758 53.3919,57.1195 53.432,57.2482 53.4734,57.3769 53.5147,57.4206 53.5549,57.6356 53.5962,57.6793 53.6376,57.808 53.6789,57.8943 53.719,58.023 53.7604,58.1092 53.8017,58.2391 53.8419,58.3254 53.8832,58.4541 53.9246,58.5403 53.9647,58.6691 54.0061,58.7553 54.0474,58.8415 54.0887,58.9702 54.1289,59.0565 54.1702,59.1864 54.2116,59.2726 54.2517,59.4013 54.2931,59.4876 54.3344,59.6163 54.3746,59.66 54.4159,59.8325 54.4572,59.9187 54.4986,60.0474 54.5387,60.1336 54.5801,60.2199 54.6214,60.3486 54.6616,60.4348 54.7029,60.5636 54.7442,60.6498 54.7856,60.7797 54.8257,60.8659 54.8671,60.9947 54.9084,61.0372 54.9486,61.2096 54.9899,61.2958 55.0313,61.3821 55.0714,61.4683 55.1128,61.597 55.1541,61.7269 55.1954,61.8132 55.2356,61.9419 55.2769,62.0281 55.3183,62.2006 55.3584,62.2431 55.3998,62.373 55.4411,62.5018 55.4813,62.588 55.5226,62.7167 55.5639,62.8466 55.6053,62.9754 55.6454,63.0616 55.6868,63.1903 55.7281,63.3628 55.7683,63.4927 55.8096,63.5789 55.8509,63.7502 55.8911,63.9226 55.9324,64.2675 55.9324,64.9998 55.8911,65.2573 55.8509,65.4297 55.8096,65.6022 55.7683,65.6459 55.7281,65.7746 55.6868,65.8171 55.6454,65.947 55.6053,65.9896 55.5639,66.0333 55.5226,66.1195 55.4813,66.162 55.4411,66.2057 55.3998,66.2482 55.3584,66.2919 55.3183,66.3344 55.2769,66.377 55.1954,66.4207 55.1541,66.4632 55.0714,66.5069 55.0313,66.5494 54.9486,66.5931 54.8671,66.6356 54.7442,66.6793 54.6616,66.7218 54.5801,66.7655 54.4572,66.8081 54.2931,66.8506 54.0887,66.8943 53.8832,66.9368 53.6376,66.9805 53.5549,67.023 53.4734,67.0667 53.432,67.1092 53.3919,67.2817 53.3505,67.8415 53.3505,69.1762 53.3919,69.2624 53.5549,69.3061 56.6706,69.3061 74.0494,69.2624 74.2538,69.2199 74.2538,67.6266 74.2136,67.2392 74.1723,67.1955 74.0081,67.1529 71.262,67.1092 69.951,67.0667 69.2943,67.023 68.9671,66.9805 68.3931,66.9368 68.1061,66.8943 67.7777,66.8506 67.5734,66.8081 67.2864,66.7655 67.1636,66.7218 66.9179,66.6793 66.8352,66.6356 66.7124,66.5931 66.5482,66.5494 66.4254,66.5069 66.3439,66.4632 66.2211,66.4207 66.1384,66.377 66.0982,66.3344 65.9742,66.2919 65.934,66.2482 65.8514,66.2057 65.8112,66.162 65.7285,66.1195 65.647,66.0758 65.6057,66.0333 65.5644,65.9896 65.5242,65.947 65.4415,65.947 65.4415,65.8608 65.36,65.8171 65.2773,65.7746 65.2372,65.7321 65.1959,65.6884 65.1545,65.6459 65.1144,65.6022 65.073,65.5596 65.0317,65.5159 64.9915,65.4734 64.9502,65.4297 64.9088,65.3872 64.8675,65.3435 64.8273,65.301 64.786,65.2573 64.7447,65.2148 64.7045,65.1285 64.6632,65.086 64.6218,65.0423 64.5817,64.9998 64.5403,64.8699 64.499,64.8273 64.4577,64.7836 64.3762,64.7836 64.3762,64.6549 64.3348,64.6124 64.2947,64.5687 64.2533,64.5262 64.212,64.4399 64.1707,64.3962 64.1305,64.31 64.0892,64.2675 64.0478,64.1813 64.0077,64.0951 63.9663,64.0525 63.925,64.0088 63.8848,63.9226 63.8435,63.8364 63.8021,63.7502 63.7207,63.7502 63.7207,63.6651 63.6793,63.5789 63.638,63.449 63.5978,63.4065 63.5565,63.3203 63.5151,63.2766 63.475,63.1478 63.4336,63.1053 63.3923,63.0191 63.351,62.9329 63.3108,62.8466 63.2695,62.7604 63.2281,62.6742 63.188,62.5455 63.1466,62.4592 63.1053,62.373 63.064,62.2431 63.0238,62.1569 62.9825,62.0718 62.9411,61.8994 62.901,61.8557 62.8596,61.7695 62.8183,61.6832 62.7781,61.5545 62.7368,61.4683 62.6955,61.3395 62.6541,61.2096 62.614,61.1234 62.5726,61.0372 62.5313,60.9521 62.4911,60.8659 62.4498,60.7797 62.4084,60.6935 62.3683,60.5636 62.3269,60.4348 62.2856,60.3486 62.2443,60.2199 62.2041,60.0899 62.1628,60.0037 62.1214,59.9187 62.0813,59.7888 62.0399,59.66 61.9986,59.6163 61.9584,59.445 61.9171,59.3151 61.8758,59.2289 61.8344,59.1427 61.7943,59.0139 61.7529,58.9277 61.7116,58.799 61.6714,58.7128 61.6301,58.6265 61.5888,58.4541 61.5474,58.3679 61.5073,58.2817 61.4659,58.1954 61.4246,58.0667 61.3844,57.9805 61.3431,57.8517 61.3017,57.7655 61.2616,57.6793 61.2203,57.5069 61.1789,57.4206 61.1376,57.3344 61.0974,57.2482 61.0561,57.1195 61.0147,57.0758 60.9746,56.947 60.9332,56.8183 60.8919,56.6883 60.8517,56.6021 60.8104,56.5159 60.7691,56.4297 60.7277,56.3435 60.6876,56.2584 60.6462,56.1285 60.6049,56.0423 60.5647,55.9135 60.5234,55.8273 60.4821,55.7411 60.4419,55.5687 60.4006,55.4824 60.3592,55.3962 60.3179,55.31 60.2777,55.1813 60.2364,55.095 60.1951,54.9226 60.1549,54.8364 60.1136,54.7076 60.0722,54.6214 60.0309,54.5352 59.9907,54.4065 59.9494,54.3628 59.908,54.1915 59.8679,54.1478 59.8265,54.019 59.7852,53.9328 59.745,53.8029 59.7037,53.6742 59.6624,53.5879 59.621,53.5017 59.5809,53.4155 59.5395,53.2868 59.4982,53.2005 59.458,53.0718 59.4167,52.9419 59.3754,52.8557 59.3352,52.7694 59.2939,52.6407 59.2525,52.5982 59.2112,52.4683 59.171,52.3395 59.1297,52.2533 59.0884,52.1234 59.0482,52.0383 59.0069,51.9084 58.9655,51.8222 58.9242,51.6935 58.884,51.6072 58.8427,51.4785 58.8013,51.3923 58.7612,51.2623 58.7199,51.1336 58.6785,51.0474 58.6384,50.9612 58.597,50.8324 58.5557,50.7887 58.5143,50.66 58.4742,50.5301 58.4328,50.4875 58.3915,50.3588 58.3513,50.2726 58.31,50.1427 58.2687,50.1001 58.2285,49.9702 58.1872,49.8852 58.1458,49.7553 58.1045,49.669 58.0643,49.5828 58.023,49.4541 57.9817,49.3253 57.9415,49.2391 57.9002,49.1092 57.8588,49.023 57.8187,48.9379 57.7773,48.808 57.736,48.7218 57.6947,48.5493 57.6545,48.4631 57.6132,48.3344 57.5718,48.2482 57.5317,48.1619 57.4903,48.0757 57.449,47.947 57.4076,47.8608 57.3675,47.732 57.3261,47.6021 57.2848,47.5159 57.2446,47.3871 57.2033,47.3009 57.162,47.1722 57.1218,47.1285 57.0805,46.956 57.0391,46.8698 56.9978,46.7848 56.9576,46.6123 56.9163,46.5261 56.875,46.4399 56.8348,46.3537 56.7935,46.2675 56.7521,46.1387 56.712,46.0088 56.6706,45.9663 56.6293,45.8363 56.588,45.7076 56.5478,45.6214 56.5065,45.4926 56.4651,45.4064 56.425,45.3202 56.3836,45.1915 56.3423,45.1052 56.3021,45.019 56.2608,44.8891 56.2194,44.8029 56.1781,44.6741 56.138,44.5879 56.0966,44.4592 56.0553,44.373 56.0151,44.2867 55.9738,44.158 55.9324,44.0718 55.8911,43.9856 55.8509,43.8556 55.8096,43.7694 55.7683,43.6407 55.7281,43.5545 55.6868,43.4682 55.6454,43.3395 55.6053,43.2533 55.5639,43.1671 55.5226,43.0808 55.4813,42.9521 55.4411,42.8659 55.3998,42.7796 55.3584,42.6934 55.3183,42.6072 55.2769,42.521 55.2356,42.4785 55.1954,42.3485 55.1541,42.2623 55.1128,42.1761 55.0714,41.9611 55.0313,41.8749 54.9899,41.7887 54.9486,41.7462 54.9486,41.4875 54.9084,41.445 54.8671,41.1001 54.8257,41.0139 54.7856,40.7989 54.7442,40.7552 54.7029,40.6265 54.6616,40.4541 54.6214,40.3678 54.5801,40.2391 54.5387,40.1529 54.4986,39.9804 54.4572,39.8942 54.4159,39.8517 54.3746,39.7218 54.3344,39.5493 54.2931,39.4631 54.2517,39.4206 54.2116,39.3344 54.1702,39.2481 54.1289,39.1619 54.0887,39.0332 54.0474,38.9895 54.0061,38.8607 53.9647,38.732 53.9246,38.6458 53.8832,38.6021 53.8419,38.5159 53.8017,38.3871 53.7604,38.3009 53.719,38.2147 53.6789,38.0422 53.6376,37.9135 53.5962,37.7848 53.5549,37.7411 53.5147,37.5686 53.4734,37.4824 53.432,37.3536 53.3919,37.2249 53.3505,37.095 53.3092,36.9662 53.2679,36.88 53.2277,36.7938 53.1864,36.6651 53.145,36.5351 53.1049,36.4926 53.0635,36.3202 53.0222,36.234 52.982,36.0615 52.9407,36.019 52.8994,35.8891 52.858,35.8029 52.8179,35.7178 52.7765,35.5879 52.7352,35.5017 52.695,35.4155 52.6537,35.2867 52.6124,35.158 52.5722,35.1143 52.5309,34.9855 52.4895,34.8993 52.4482,34.7694 52.408,34.6843 52.3667,34.5119 52.3253,34.4257 52.2852,34.3395 52.2438,34.2095 52.2025,34.0808 52.1624,33.9946 52.121,33.9084 52.0797,33.7796 52.0383,33.6934 51.9982,33.521 51.9568,33.4784 51.9155,33.306 51.8753,33.2198 51.834,33.091 51.7927,33.0048 51.7513,32.8749 51.7112,32.7887 51.6698,32.7025 51.6285,32.5312 51.5883,32.4013 51.547,32.3151 51.5057,32.2288 51.4655,32.1001 51.4242,32.0139 51.3828,31.8414 51.3415,31.7127 51.3013,31.6265 51.26,31.5828 51.2186,31.4115 51.1785,31.3253 51.1372,31.1954 51.0958,31.1091 51.0557,30.9804 51.0143,30.8517 50.973,30.808 50.9316,30.6355 50.8915,30.5068 50.8501,30.378 50.8088,30.3343 50.7686,30.2056 50.7273,30.0757 50.686,29.9906 50.6458,29.9044 50.6045,29.732 50.5631,29.6458 50.5218,29.5595 50.4816,29.3871 50.4403,29.3009 50.399,29.2146 50.3588,29.0859 50.3175,29.0422 50.2761,28.9135 50.2348,28.7847 50.1946,28.6548 50.1533,28.5261 50.112,28.4824 50.0718,28.3536 50.0305,28.2249 49.9891,28.1812 49.949,28.0524 49.9076,27.9662 49.8663,27.7938 49.8249,27.7513 49.7848,27.6213 49.7434,27.4926 49.7021,27.4064 49.662,27.3639 49.6206,27.1914 49.5793,27.1052 49.5391,26.9328 49.4978,26.8465 49.4564,26.7603 49.4151,26.6316 49.3749,26.5879 49.3336,26.5016 49.2923,26.4154 49.2521,26.2442 49.2108,26.2005 49.1694,26.028 49.1293,25.9418 49.0879,25.8556 49.0466,25.7705 49.0053,25.6406 48.9651,25.5544 48.9238,25.4682 48.8824,25.3394 48.8423,25.2532 48.8009,25.0808 48.7596,24.952 48.7182,24.8658 48.6781,24.8221 48.6368,24.7371 48.5954,24.6072 48.5553,24.5209 48.5139,24.4347 48.4726,24.2623 48.4324,24.1772 48.3911,24.091 48.3497,24.0048 48.3084,23.8749 48.2682,23.7886 48.2269,23.7024 48.1856,23.5737 48.1454,23.4449 48.1041,23.315 48.0627,23.2288 48.0226,23.1438 47.9812,23.0575 47.9399,22.9276 47.8986,22.7989 47.8584,22.7127 47.8171,22.6264 47.7757,22.4977 47.7356,22.3678 47.6942,22.3253 47.6529,22.1953 47.6116,22.0666 47.5714,21.9804 47.5301,21.8516 47.4887,21.6792 47.4486,21.593 47.4072,21.5068 47.3659,21.4205 47.3257,21.2481 47.2844,21.1619 47.243,21.0756 47.2017,20.9906 47.1615,20.9044 47.1202,20.7745 47.0789,20.6882 47.0387,20.5595 46.9974,20.4308 46.956,20.3445 46.9159,20.2583 46.8745,20.1284 46.8332,20.0422 46.7919,19.9571 46.7517,19.8272 46.7104,19.741 46.669,19.6123 46.6289,19.526 46.5875,19.3973 46.5462,19.3111 46.506,19.1812 46.4647,19.0949 46.4234,19.0087 46.382,18.88 46.3419,18.7938 46.3005,18.665 46.2592,18.5351 46.219,18.4489 46.1777,18.3638 46.1364,18.2339 46.095,18.1477 46.0549,18.0615 46.0135,17.9327 45.9722,17.804 45.932,17.6741 45.8907,17.5453 45.8493,17.4591 45.8092,17.3729 45.7678,17.2441 45.7265,17.2004 45.6852,17.028 45.645,16.9418 45.6037,16.7705 45.5623,16.6406 45.5222,16.5544 45.4808,16.4682 45.4395,16.3819 45.3993,16.2532 45.358,16.1245 45.3167,16.0382 45.2753,15.9083 45.2352,15.8221 45.1938,15.6934 45.1525,15.5646 45.1123,15.4784 45.071,15.3922 45.0297,15.3059 44.9895,15.1772 44.9482,15.091 44.9068,14.9185 44.8655,14.8323 44.8253,14.7461 44.784,14.6599 44.7426,14.5311 44.7025,14.4012 44.6611,14.3587 44.6198,14.1863 44.5785,14.1437 44.5383,13.9713 44.497,13.8851 44.4556,13.7552 44.4155,13.6701 44.3741,13.5402 44.3328,13.454 44.2926,13.3252 44.2513,13.239 44.21,13.1103 44.1686,12.9804 44.1285,12.8941 44.0871,12.7217 44.0458,12.6792 44.0056,12.5067 43.9643,12.4205 43.923,12.2918 43.8828,12.1618 43.8415,11.9906 43.8001,11.9469 43.7588,11.8181 43.7186,11.6882 43.6773,11.602 43.6359,11.517 43.5958,11.4307 43.5545,11.2146 43.5131,11.1284 43.473,11.0859 43.4316,11.0433 43.3903,10.9571 43.3489,10.9134 43.2674,10.8709 43.1446,10.8272 43.1033,10.7847 42.9804,10.741 42.8989,10.6985 42.8576,10.6548 42.7761,10.6122 42.6934,10.5685 42.5706,10.5685 42.5706,10.4835 42.4478,10.4398 42.4064,10.3973 42.3249,10.3536 42.2422,10.3111 42.1607,10.2674 42.1194,10.2248 42.0793,10.1386 41.9966,10.0949 41.9151,10.0524 41.8737,10.0087 41.8324,9.96617 41.7509,9.92365 41.7096,9.87995 41.6694,9.79373 41.6281,9.75121 41.5867,9.70751 41.5454,9.66499 41.5052,9.62129 41.4639,9.57877 41.4226,9.49255 41.3824,9.45003 41.3411,9.36381 41.2997,9.3201 41.2596,9.23388 41.2182,9.19136 41.1769,9.14766 41.1355,9.10514 41.0954,8.97522 41.0541,8.9327 41.0127,8.89018 40.9726,8.80396 40.9312,8.76026 40.8899,8.71774 40.8485,8.67404 40.8084,8.63152 40.767,8.58782 40.6855,8.5453 40.6029,8.5453" class="fil1"></polygon>
 </g>
</svg>
